<svg width="88" height="30" viewBox="0 0 88 30" fill="none" xmlns="http://www.w3.org/2000/svg">
<path d="M22.9054 10.815C22.8163 10.4591 22.6349 10.1329 22.3794 9.86955C22.1239 9.60618 21.8035 9.41489 21.4504 9.315C20.1604 9 15.0004 9 15.0004 9C15.0004 9 9.84043 9 8.55043 9.345C8.19736 9.44489 7.87691 9.63618 7.62144 9.89955C7.36597 10.1629 7.18452 10.4891 7.09543 10.845C6.85934 12.1542 6.74386 13.4822 6.75043 14.8125C6.74201 16.1528 6.8575 17.491 7.09543 18.81C7.19365 19.1549 7.37916 19.4686 7.63404 19.7209C7.88891 19.9731 8.20454 20.1554 8.55043 20.25C9.84043 20.595 15.0004 20.595 15.0004 20.595C15.0004 20.595 20.1604 20.595 21.4504 20.25C21.8035 20.1501 22.1239 19.9588 22.3794 19.6954C22.6349 19.4321 22.8163 19.1059 22.9054 18.75C23.1397 17.4507 23.2552 16.1328 23.2504 14.8125C23.2588 13.4722 23.1434 12.134 22.9054 10.815Z" fill="#F9C270"/>
<path d="M13.3125 16.4054C13.3125 16.7889 13.7264 17.0296 14.0597 16.8401L16.8607 15.2471C17.1978 15.0554 17.1978 14.5696 16.8607 14.3779L14.0597 12.7849C13.7264 12.5953 13.3125 12.8361 13.3125 13.2195V16.4054Z" fill="white"/>
<path d="M29 9C29 6.79086 30.7909 5 33 5H84C86.2091 5 88 6.79086 88 9V20C88 22.2091 86.2091 24 84 24H33C30.7909 24 29 22.2091 29 20V9Z" fill="#F9C270"/>
<path d="M35.524 15.772V16.672H39.16V15.772H35.524ZM35.524 17.164V18.064H39.244V17.164H35.524ZM35.296 18.604V19.576H39.34V18.604H35.296ZM36.796 15.016V18.856H37.9V15.016H36.796ZM34.936 11.98H35.692V12.832H34.936V11.98ZM34.156 11.248V13.552H36.52V11.248H34.156ZM37.756 11.98H38.5V12.796H37.756V11.98ZM36.976 11.236V13.54H39.316V11.236H36.976ZM35.716 14.356H35.596L34.696 15.496V20.08H35.716V15.316H39.4V14.356H35.716ZM35.188 13.42C34.852 14.356 34.276 15.28 33.688 15.916C33.856 16.156 34.156 16.696 34.252 16.912C34.936 16.12 35.644 14.884 36.088 13.744L35.188 13.42ZM36.616 13.828C36.796 14.164 36.976 14.62 37.024 14.92L37.948 14.524C37.9 14.224 37.696 13.792 37.492 13.48L36.616 13.828ZM33.76 9.424V10.444H35.788V9.424H33.76ZM35.284 8.824V11.056H36.4V8.824H35.284ZM37.12 8.824V11.056H38.26V8.824H37.12ZM37.576 9.412V10.432H39.592V9.412H37.576ZM41.008 12.328H43.156V13.024H41.008V12.328ZM41.008 14.164H43.156V14.872H41.008V14.164ZM41.008 10.48H43.156V11.176H41.008V10.48ZM39.808 9.208V16.144H44.416V9.208H39.808ZM42.292 15.676V18.508C42.292 19.588 42.472 19.96 43.348 19.96C43.516 19.96 43.768 19.96 43.936 19.96C44.644 19.96 44.944 19.528 45.016 17.764C44.728 17.668 44.224 17.488 44.032 17.296C44.008 18.688 43.972 18.82 43.792 18.82C43.744 18.82 43.588 18.82 43.528 18.82C43.396 18.82 43.384 18.784 43.384 18.496V15.676H42.292ZM40.648 15.7C40.564 17.152 40.312 18.34 38.932 19.036C39.208 19.264 39.568 19.768 39.724 20.092C41.368 19.156 41.728 17.608 41.848 15.7H40.648ZM49.636 14.116V20.116H51.016V15.208H55.36V20.116H56.812V14.116H49.636ZM47.248 12.484V13.612H57.94V12.484H47.248ZM48.088 10.876V11.968H57.28V10.876H48.088ZM50.572 15.712V16.624H55.948V15.712H50.572ZM50.572 17.14V18.04H55.948V17.14H50.572ZM50.404 18.592V19.684H55.948V18.592H50.404ZM56.404 8.848C54.376 9.184 50.896 9.328 47.956 9.328C48.076 9.616 48.208 10.096 48.232 10.408C51.208 10.432 54.784 10.288 57.244 9.88L56.404 8.848ZM51.292 9.844C50.728 12.436 49.408 15.076 46.864 16.444C47.152 16.72 47.572 17.26 47.764 17.584C50.536 15.988 51.976 13.132 52.792 10.144L51.292 9.844ZM61.768 13.912V14.932H64.78V13.912H61.768ZM61.552 12.208V13.288H64.348V15.448H61.54V16.528H65.704V12.208H61.552ZM63.364 17.08C63.916 17.92 64.624 19.06 64.936 19.78L66.136 19.156C65.776 18.46 65.092 17.392 64.492 16.564L63.364 17.08ZM66.34 12.208V20.032H67.684V13.516H70.216V12.208H66.34ZM69.544 12.208V17.164C69.544 17.32 69.496 17.368 69.316 17.368C69.148 17.38 68.536 17.38 67.996 17.356C68.176 17.716 68.356 18.292 68.416 18.676C69.292 18.676 69.904 18.664 70.348 18.448C70.804 18.232 70.924 17.86 70.924 17.2V12.208H69.544ZM61.096 19.852C61.384 19.672 61.876 19.54 64.792 18.82C64.78 18.508 64.792 17.932 64.864 17.548L61.552 18.292L60.976 18.724L61.096 19.852ZM61.096 19.852C61.096 19.372 62.284 18.58 62.284 18.58V12.208H60.964V17.668C60.964 18.22 60.688 18.568 60.46 18.736C60.676 18.976 61 19.54 61.096 19.852ZM61.972 9.52V10.732H65.728V9.52H61.972ZM66.808 9.52V10.732H71.308V9.52H66.808ZM61.972 8.716C61.576 9.7 60.88 10.708 60.136 11.332C60.424 11.62 60.904 12.28 61.096 12.568C61.972 11.752 62.848 10.42 63.376 9.136L61.972 8.716ZM66.856 8.716C66.556 9.832 65.98 10.948 65.284 11.644C65.596 11.896 66.16 12.424 66.4 12.7C67.18 11.836 67.9 10.456 68.32 9.088L66.856 8.716ZM62.632 11.308C63.016 11.644 63.484 12.148 63.7 12.472L64.756 11.584C64.516 11.272 64.024 10.816 63.64 10.504L62.632 11.308ZM67.972 11.224C68.356 11.56 68.824 12.052 69.028 12.376L70.048 11.488C69.82 11.176 69.328 10.72 68.944 10.42L67.972 11.224ZM75.724 12.244V13.6H82.24V12.244H75.724ZM75.724 15.028V16.384H82.24V15.028H75.724ZM75.724 17.8V19.204H82.24V17.8H75.724ZM74.68 9.46V19.948H76.132V10.876H81.712V19.948H83.236V9.46H74.68Z" fill="white"/>
</svg>
